<?xml version="1.0" encoding="UTF-8"?>
<svg xmlns="http://www.w3.org/2000/svg" version="1.1" viewBox="0 0 200 200">
  <!-- Generator: Adobe Illustrator 28.7.1, SVG Export Plug-In . SVG Version: 1.2.0 Build 142)  -->
  <g>
    <g id="_图层_1" data-name="图层_1">
      <path d="M100,66.7c-18.4,0-33.3,15-33.3,33.3s15,33.3,33.3,33.3,33.3-15,33.3-33.3-15-33.3-33.3-33.3Z"/>
      <path d="M200,100c0-13.8.1-27.5-.7-41.3-.8-16-4.4-30.2-16.1-41.9-11.7-11.7-25.9-15.4-41.9-16.1C127.5,0,113.8,0,100,0s-27.5-.1-41.3.7c-16,.8-30.2,4.4-41.9,16.1C5.1,28.5,1.5,42.7.7,58.7,0,72.5,0,86.2,0,100s-.1,27.5.7,41.3c.8,16,4.4,30.2,16.1,41.9,11.7,11.7,25.9,15.4,41.9,16.1,13.8.8,27.5.7,41.3.7s27.5.1,41.3-.7c16-.8,30.2-4.4,41.9-16.1,11.7-11.7,15.4-25.9,16.1-41.9.8-13.8.7-27.5.7-41.3h0ZM100,151.3c-28.4,0-51.3-22.9-51.3-51.3s22.9-51.3,51.3-51.3,51.3,22.9,51.3,51.3-22.9,51.3-51.3,51.3ZM153.4,58.6c-6.6,0-12-5.4-12-12s5.4-12,12-12,12,5.4,12,12c0,6.7-5.4,12-12,12Z"/>
    </g>
  </g>
</svg>