<?xml version="1.0" encoding="UTF-8"?>
<svg xmlns="http://www.w3.org/2000/svg" version="1.1" viewBox="0 0 200 200">
  <defs>
    <style>
      .cls-1 {
        fill: #0040ff;
      }
    </style>
  </defs>
  <!-- Generator: Adobe Illustrator 28.7.1, SVG Export Plug-In . SVG Version: 1.2.0 Build 142)  -->
  <g>
    <g id="_图层_1" data-name="图层_1">
      <path class="cls-1" d="M170.4,170.4h-29.6v-46.4c0-11.1-.2-25.3-15.4-25.3s-17.8,12-17.8,24.5v47.2h-29.6v-95.4h28.4v13h.4c4-7.5,13.6-15.4,28.1-15.4,30,0,35.6,19.7,35.6,45.5v52.4ZM44.5,61.9c-9.5,0-17.2-7.7-17.2-17.2s7.7-17.2,17.2-17.2c9.5,0,17.2,7.7,17.2,17.2,0,9.5-7.7,17.2-17.2,17.2ZM59.3,170.4h-29.7v-95.4h29.7v95.4h0ZM185.2,0H14.8C6.6,0,0,6.4,0,14.4v171.2c0,8,6.6,14.4,14.8,14.4h170.4c8.2,0,14.8-6.4,14.8-14.4V14.4C200,6.5,193.3,0,185.2,0h0Z"/>
    </g>
  </g>
</svg>