<?xml version="1.0" encoding="UTF-8"?>
<svg id="_图层_1" data-name="图层_1" xmlns="http://www.w3.org/2000/svg" viewBox="0 0 199.42 199.42">
  <defs>
    <style>
      .cls-1 {
        fill: #0040ff;
      }
    </style>
  </defs>
  <path class="cls-1" d="M65.9,66.18c-3.47,0-6.94,2.31-6.94,5.78s3.47,5.78,6.94,5.78,5.78-2.31,5.78-5.78-2.31-5.78-5.78-5.78ZM112.86,99.71c-2.31,0-4.48,2.46-4.48,4.62,0,2.46,2.31,4.62,4.48,4.62,3.47,0,5.78-2.31,5.78-4.62s-2.31-4.62-5.78-4.62h0ZM97.98,77.75c3.47,0,5.78-2.46,5.78-5.78s-2.31-5.78-5.78-5.78-6.94,2.31-6.94,5.78,3.47,5.78,6.94,5.78ZM138.01,99.71c-2.31,0-4.48,2.46-4.48,4.62,0,2.46,2.31,4.62,4.48,4.62,3.47,0,5.78-2.31,5.78-4.62s-2.31-4.62-5.78-4.62h0Z"/>
  <path class="cls-1" d="M99.71,0C44.65,0,0,44.65,0,99.71s44.65,99.71,99.71,99.71,99.71-44.65,99.71-99.71S154.77,0,99.71,0ZM80.78,125.29c-5.78,0-10.4-1.16-15.9-2.46l-15.9,8.09,4.48-14.02c-11.42-8.09-18.35-18.64-18.35-31.21,0-22.11,20.66-39.45,45.66-39.45,22.4,0,42.2,13.87,46.1,32.51-1.45-.14-2.89-.29-4.34-.29-21.68.29-38.73,16.62-38.73,36.85,0,3.32.58,6.5,1.45,9.68-1.45.14-3.03.29-4.48.29ZM148.41,141.47l3.47,11.56-12.43-6.94c-4.48,1.16-9.1,2.31-13.73,2.31-21.82,0-39.02-15.03-39.02-33.67-.14-18.5,17.05-33.53,38.73-33.53s38.87,15.17,38.87,33.67c0,10.4-6.79,19.65-15.9,26.59h0Z"/>
</svg>