<?xml version="1.0" encoding="UTF-8"?>
<svg xmlns="http://www.w3.org/2000/svg" version="1.1" viewBox="0 0 200 200">
  <defs>
    <style>
      .cls-1 {
        fill: #0040ff;
      }
    </style>
  </defs>
  <!-- Generator: Adobe Illustrator 28.7.1, SVG Export Plug-In . SVG Version: 1.2.0 Build 142)  -->
  <g>
    <g id="_图层_1" data-name="图层_1">
      <path class="cls-1" d="M141.9,89.3c-1.3,0-2.6,0-3.9,0-.5,0-.6.2-.6.6,0,1,0,2,0,3h0c0,1,0,1.9,0,2.8,0,.8.1.9.9.9,1.4,0,2.8,0,4.2,0,.5,0,.7-.2.7-.7,0-1.8,0-3.6,0-5.4,0-.7-.6-1.2-1.3-1.3Z"/>
      <path class="cls-1" d="M166,10H34c-13.3,0-24,10.7-24,24v132c0,13.3,10.7,24,24,24h132c13.3,0,24-10.7,24-24V34c0-13.3-10.7-24-24-24ZM49,98.8c-.1,2.1-.3,4.2-.5,6.2-.4,3.6-1.2,7.1-2.9,10.3-.4.8-1,1.5-1.6,2.4-.4-.8-.7-1.4-.9-2-1-2.2-1.9-4.4-2.9-6.6-.1-.2-.2-.6,0-.8.6-1.3.7-2.8.8-4.2.1-1.8.3-3.6.4-5.4.1-1.4.2-2.7.3-4.1.1-1.6.3-3.2.4-4.7,0-.4.2-.5.6-.5,2.2,0,4.3,0,6.5,0,.5,0,.6.2.6.6-.2,2.9-.4,5.7-.6,8.6ZM62.9,115.8c-.1,1.8-1,3.4-2.5,4.6-1.1.8-2.3,1.2-3.6,1.2-1.1,0-2.3,0-3.4,0-.4,0-.6-.1-.8-.5-.7-1.5-1.3-3-2-4.5-.1-.2-.1-.5-.2-.7-.3-.8-.3-.8.6-.9h2.7c1.2,0,1.7-.5,1.7-1.7,0-.9,0-1.8,0-2.7v-14.2s0,0,0,0v-16.7c0-.8,0-.9.9-.9h5.7c1,0,1,0,1,1.1,0,5.3,0,10.6,0,15.9,0,4.7,0,9.3,0,14s0,4-.1,5.9ZM77.7,110.2c-1,2.3-2,4.5-3,6.7,0,.2-.2.4-.5.9h0c-.6-.9-1.2-1.6-1.6-2.4-.6-1.2-.9-2.5-1.4-3.7-.6-1.3-.8-2.7-1.1-4.1-.2-1.2-.3-2.4-.4-3.6-.2-3-.4-6-.7-9-.1-1.6-.3-3.3-.4-4.9,0-.3,0-.4.4-.4,2.3,0,4.5,0,6.7,0,.4,0,.6.2.6.6,0,.9.1,1.8.2,2.7,0,.7.1,1.5.2,2.2.1,1.1.2,2.1.3,3.2.1,1.3.1,2.7.3,4,.3,2,0,4.1.8,6.1.2.5-.2,1.2-.4,1.7h0ZM94.1,114.5c-.6,1.3-1.2,2.6-1.8,3.9-.3.7-.6,1.5-.9,2.2-.4.9-.6,1.1-1.5,1.1h-4.4c-1.5,0-2.9,0-4.4,0-.7,0-1.4-.2-2.1-.4-.3,0-.4-.3-.3-.6.9-1.9,1.8-3.8,2.6-5.7.2-.4.4-.9.6-1.3,0-.1.3-.3.4-.2,2.4.6,4.9.5,7.4.5,1.3,0,2.6,0,3.9,0,.6,0,.7,0,.4.7h0ZM94.9,110.2c-.1.2-.3.3-.5.3-2.7,0-5.4,0-8.2,0-.8,0-1.7-.2-2.3-.8-.7-.7-1-1.4-.6-2.3.6-1.6,1.2-3.1,1.9-4.7.8-1.8,1.5-3.6,2.4-5.5-.5,0-.7,0-1,0-.8,0-1.6,0-2.4,0-.9-.1-1.8-.2-2.4-.9-.7-.7-.8-1.6-.5-2.4.4-1.3,1-2.6,1.5-3.9.5-1.2,1.1-2.4,1.7-3.6.6-1.3,1.1-2.6,1.7-3.8.5-1.1,1-2.3,1.5-3.4.1-.4.4-.5.8-.5,2.1,0,4.3,0,6.4,0s.7,0,.4.7c-1.2,2.9-2.5,5.7-3.7,8.6-.1.3-.2.6-.2,1,0,.8.2.9,1,.9,1.6,0,3.2,0,4.8,0s.7,0,1,0c.5,0,.5.2.3.6-.9,1.9-1.8,3.8-2.6,5.7-.6,1.4-1.2,2.7-1.7,4.1-.4.9-.8,1.8-1.2,2.7-.4.8-.1,1.2.8,1.2,1.2,0,2.4,0,3.5,0,.4,0,.6.1.4.6-.7,1.6-1.4,3.2-2.1,4.9-.1.3-.3.6-.5.8ZM121.2,121.7h-24.5c-.3,0-.7,0-1.2,0h0c.2-.5.3-.9.4-1.2.9-2,1.8-4,2.7-6,.2-.5.5-.6.9-.6h5.6c.9,0,.9,0,.9-.9v-22.8c0-.8,0-.8-.8-.8-1.2,0-2.4,0-3.6,0-.5,0-.6-.1-.6-.6,0-2.1,0-4.3,0-6.4s0-.8.8-.8h14.3c.8,0,1.7,0,2.5,0,.4,0,.6.2.5.6,0,2.2,0,4.5,0,6.7s-.1.5-.6.5c-1.3,0-2.6,0-3.9,0s-.7.2-.7.7c0,3.6,0,7.2,0,10.8s0,8.2,0,12.2c0,.7,0,.8.8.8h6.1c.7,0,.8,0,.8.7,0,2.1,0,4.3,0,6.4,0,.6-.3.6-.7.6ZM160,114.9c0,3.2-2.1,5.7-5.2,6.4-.8.2-1.7.3-2.6.3-1.3,0-2.7,0-4,0s-1.1-.2-1.4-.9c-.7-1.6-1.3-3.1-2-4.7v-.3c-.4-.6-.3-.7.3-.7,1.8,0,3.7,0,5.5,0,1.1,0,1.6-.6,1.6-1.7,0-2.2,0-4.3,0-6.5,0-1.1-1.3-2.2-2.3-2.3-.2,0-.4,0-.5,0-3.7,0-7.3,0-11,0-1,0-1.1.1-1.1,1.1v15.1c0,.8,0,.8-.8.8h-6.1c-.8,0-.8,0-.8-.8v-7.8s0,0,0,0v-8c0-.5-.4-.6-.7-.6-2,0-4,0-6,0s-1.2.2-1.2-1.2c0-1.9,0-3.9,0-5.8s0-.8.8-.8c2.1,0,4.2,0,6.3,0,.8,0,.8,0,.9-.8,0-1.9,0-3.9,0-5.8,0-.5-.2-.6-.7-.6-1.3,0-2.7,0-4,0-.4,0-.6-.1-.6-.6,0-2.2,0-4.4,0-6.6,0-.5.2-.6.7-.6,1.2,0,2.5,0,3.7,0s.9,0,.9-.9c0-.5,0-1,0-1.5,0-.5.2-.6.7-.6,1.8,0,3.6,0,5.3,0h1c.8,0,.8,0,.8.8,0,.5,0,1,0,1.4,0,.7.2.8.8.9,1.1,0,2.2,0,3.3,0,2.9,0,5.3,1,7.2,3.2,1,1.2,1.7,2.7,1.8,4.3.1,1.7,0,3.3,0,5,0,.6,0,1.2,0,1.9,0,.6.2.8.8.8,1.3,0,2.5.2,3.7.6,2.5,1,4.1,2.8,4.6,5.5,0,.5.1,1.1.1,1.6,0,3.5,0,7,0,10.5h0ZM158.2,88.6c-1.2.8-2.4.7-3.8.7-.4,0-1,0-1.6,0-.1,0-.4-.2-.4-.3-.1-1.7-.3-3.5.3-5.1.5-1.5,1.9-2.3,3.4-2.4,1.7,0,3.3,1.1,3.8,2.8.5,1.6-.3,3.4-1.7,4.3Z"/>
    </g>
  </g>
</svg>