<?xml version="1.0" encoding="UTF-8"?>
<svg xmlns="http://www.w3.org/2000/svg" version="1.1" viewBox="0 0 200 200">
  <!-- Generator: Adobe Illustrator 28.7.1, SVG Export Plug-In . SVG Version: 1.2.0 Build 142)  -->
  <g>
    <g id="_图层_1" data-name="图层_1">
      <path d="M173.3,0H26.7C11.9,0,0,11.9,0,26.7v146.7C0,188.1,11.9,200,26.7,200h146.7c14.7,0,26.7-11.9,26.7-26.7V26.7C200,11.9,188.1,0,173.3,0ZM29.7,98.3c-.2,2.9-.4,5.7-.7,8.6-.6,5-1.7,9.8-3.9,14.2-.6,1.1-1.4,2.1-2.2,3.4-.5-1.1-.9-1.9-1.3-2.7-1.3-3-2.7-6-4-9-.1-.3-.2-.8,0-1.1.9-1.8.9-3.8,1-5.8.2-2.5.4-4.9.5-7.4.1-1.9.2-3.8.4-5.6.2-2.2.4-4.4.6-6.5,0-.5.3-.7.8-.7,3,0,5.9,0,8.9,0,.6,0,.8.3.8.9-.3,3.9-.5,7.9-.8,11.8ZM48.9,121.8c-.2,2.5-1.4,4.7-3.4,6.3-1.5,1.2-3.2,1.7-5,1.6-1.6,0-3.1,0-4.7,0-.5,0-.9-.2-1.1-.7-.9-2.1-1.9-4.1-2.8-6.2-.1-.3-.2-.6-.3-.9-.4-1.1-.4-1.2.8-1.2h3.7c1.6,0,2.3-.7,2.3-2.3,0-1.2,0-2.5,0-3.7v-19.6s0,0,0,0v-23.1c0-1.2,0-1.2,1.2-1.2h7.9c1.4,0,1.4,0,1.4,1.5,0,7.3,0,14.6,0,21.9,0,6.4,0,12.9,0,19.3s0,5.5-.2,8.2ZM69.2,114c-1.3,3.1-2.7,6.2-4.1,9.3-.1.3-.3.6-.6,1.2h0c-.8-1.2-1.6-2.2-2.2-3.3-.8-1.7-1.2-3.5-2-5.1-.8-1.8-1.1-3.7-1.5-5.6-.3-1.6-.4-3.3-.5-4.9-.3-4.1-.6-8.3-.9-12.4-.2-2.3-.4-4.5-.6-6.8,0-.4,0-.6.5-.6,3.1,0,6.2,0,9.3,0,.6,0,.8.3.8.8,0,1.3.1,2.5.2,3.8,0,1,.2,2.1.3,3.1.1,1.5.3,2.9.4,4.3.1,1.9.1,3.7.4,5.6.4,2.8,0,5.7,1.1,8.4.2.6-.3,1.6-.6,2.4h0ZM91.9,119.9c-.8,1.8-1.6,3.6-2.4,5.3-.4,1-.9,2-1.3,3-.5,1.2-.8,1.5-2.1,1.5h-6c-2,0-4,0-6.1,0-1,0-1.9-.3-2.9-.5-.5,0-.6-.4-.4-.8,1.2-2.6,2.4-5.2,3.6-7.9.3-.6.5-1.3.8-1.9,0-.2.4-.3.5-.3,3.3.8,6.8.7,10.2.7,1.8,0,3.6,0,5.4,0,.9,0,.9.1.6.9h0ZM92.9,114.1c-.2.2-.5.3-.7.4-3.7,0-7.5,0-11.2,0-1.1,0-2.3-.3-3.2-1.2-.9-.9-1.3-2-.9-3.2.8-2.2,1.7-4.3,2.6-6.5,1-2.5,2.1-4.9,3.2-7.6-.6,0-1,0-1.4,0-1.1,0-2.2,0-3.3,0-1.2-.1-2.4-.3-3.4-1.3-.9-1-1.1-2.2-.7-3.3.6-1.8,1.3-3.6,2.1-5.4.7-1.7,1.5-3.3,2.3-4.9.8-1.8,1.6-3.5,2.4-5.3.7-1.6,1.4-3.1,2.1-4.7.2-.5.5-.7,1-.7,2.9,0,5.9,0,8.8,0s1,0,.6,1c-1.7,3.9-3.4,7.9-5.1,11.8-.2.4-.3.9-.3,1.3,0,1.1.3,1.2,1.4,1.2,2.2,0,4.4,0,6.6,0s.9,0,1.3,0c.6,0,.7.3.4.8-1.2,2.6-2.4,5.2-3.6,7.9-.8,1.9-1.6,3.7-2.4,5.6-.5,1.2-1.1,2.5-1.7,3.7-.5,1.1-.2,1.7,1.1,1.7,1.6,0,3.2,0,4.9,0,.6,0,.8.2.6.8-1,2.2-1.9,4.5-2.9,6.7-.2.4-.4.8-.6,1.2ZM129.2,129.9h-33.7c-.5,0-.9,0-1.6,0h0c.2-.7.4-1.2.6-1.6,1.3-2.8,2.5-5.5,3.8-8.3.3-.6.7-.8,1.3-.8h7.7c1.2,0,1.3,0,1.3-1.3v-31.4c0-1.1,0-1.1-1.1-1.1-1.6,0-3.3,0-4.9,0-.6,0-.9-.1-.9-.8,0-3,0-5.9,0-8.9s0-1.1,1-1.1h19.7c1.1,0,2.3,0,3.4,0,.5,0,.8.2.7.8,0,3.1,0,6.1,0,9.2s-.2.7-.8.7c-1.8,0-3.5,0-5.3,0s-.9.3-.9.9c0,5,0,9.9,0,14.8s0,11.2,0,16.9c0,1,0,1.1,1.1,1.1h8.5c.9,0,1,0,1.1,1,0,3,0,5.9,0,8.9,0,.8-.4.9-1,.9ZM182.7,120.5c0,4.4-3,7.9-7.1,8.9-1.2.3-2.4.4-3.6.4-1.8,0-3.7,0-5.5,0s-1.5-.2-1.9-1.3c-.9-2.1-1.8-4.3-2.8-6.4l-.2-.4c-.3-.8-.2-1,.7-1,2.5,0,5.1,0,7.6,0,1.5,0,2.2-.8,2.2-2.3,0-3,0-5.9,0-8.9,0-1.5-1.8-3.1-3.2-3.2-.2,0-.5,0-.7,0-5,0-10.1,0-15.1,0-1.4,0-1.5.1-1.5,1.6v20.9c0,1.1,0,1.1-1.1,1.1h-8.4c-1.1,0-1.2,0-1.2-1.2v-10.8s0,0,0,0v-11c0-.7-.5-.8-1-.8-2.7,0-5.5,0-8.2,0s-1.7.2-1.7-1.7c0-2.7,0-5.4,0-8s0-1.1,1.1-1.1c2.9,0,5.7,0,8.6,0,1.1,0,1.2,0,1.2-1.1,0-2.7,0-5.3,0-8,0-.7-.3-.9-.9-.9-1.8,0-3.7,0-5.5,0-.6,0-.8-.2-.8-.8,0-3,0-6,0-9.1,0-.7.3-.9.9-.9,1.7,0,3.4,0,5.1,0s1.2,0,1.2-1.3c0-.7,0-1.4,0-2.1,0-.7.3-.9.9-.9,2.4,0,4.9,0,7.3,0h1.3c1.1,0,1.1,0,1.1,1.1,0,.6,0,1.3,0,2,0,.9.3,1.2,1.2,1.2,1.5,0,3,0,4.6,0,3.9,0,7.4,1.4,10,4.4,1.4,1.7,2.3,3.7,2.5,6,.1,2.3,0,4.6,0,6.9,0,.9,0,1.7,0,2.6,0,.9.2,1.1,1.1,1.1,1.7,0,3.5.2,5.1.9,3.5,1.4,5.7,3.8,6.4,7.5.1.7.2,1.5.2,2.2,0,4.8,0,9.6,0,14.5h0ZM180.3,84.3c-1.6,1.1-3.3,1-5.2,1-.6,0-1.4,0-2.2,0-.2,0-.5-.3-.6-.4-.2-2.4-.5-4.8.4-7.1.7-2,2.6-3.2,4.7-3.3,2.4,0,4.5,1.6,5.2,3.9.6,2.2-.4,4.7-2.3,6ZM157.7,85.3c-1.8,0-3.6,0-5.4,0-.6,0-.8.3-.8.9,0,1.4,0,2.7,0,4.1h0c0,1.3,0,2.6,0,3.9,0,1.1.2,1.3,1.2,1.3,1.9,0,3.8,0,5.8,0,.7,0,1-.3,1-1,0-2.5,0-4.9,0-7.4,0-.9-.8-1.7-1.7-1.7Z"/>
    </g>
  </g>
</svg>